:SAMPLES-PER-SECOND 30
:FULLY-SPECIFIED
:DEGREES
1043
root  4.0198 38.1718 -0.748783 52.7745 84.28 59.887
RightUpLeg  11.2214 -4.23692 -12.1537
RightLeg  45.0344 3.45544 3.39489
RightFoot  -2.91664 -0.991628 13.2439
RightToes  6.35927e-011 1.30204e-014 -6.03759e-014
Spine  1.2891 1.57773 -2.23431
Spine1  13.8884 2.99868 -6.30292
HEad  -15.4606 -0.498048 -2.24022
LeftShoulder1  -0.36314 4.57884 -27.5863
LeftArm  -15.1634 1.97142 -30.0893
LeftForeArm  83.6162 -78.2614 -108.121
LeftHand  -0.0512894 1.52036 1.31964
RightShoulder  -0.38009 -4.66404 25.76
RightArm  -13.4282 -8.37695 38.0346
RightForeArm  111.363 69.5802 146.369
RightHand  -0.0648959 -4.08024 -4.0485
LeftUpLeg  -13.3872 7.88938 -7.03753
LeftLeg  23.0106 3.19583 1.83603
LeftFoot  -1.82748 -0.471885 5.79517
LeftToes  -7.16024e-010 4.79583e-011 -5.98286e-011
1044
root  4.92165 38.2672 -0.955362 49.157 83.5117 56.428
RightUpLeg  5.30439 -3.26457 -12.9964
RightLeg  54.2849 2.89965 3.92562
RightFoot  1.22631 -1.16579 10.5467
RightToes  6.35927e-011 1.30204e-014 -6.03759e-014
Spine  2.2535 1.57373 -3.30184
Spine1  13.5411 2.68807 -6.06713
HEad  -16.4609 0.171443 -2.80336
LeftShoulder1  -0.359008 4.56942 -27.4951
LeftArm  -15.2168 2.45219 -29.8709
LeftForeArm  84.7307 -78.1657 -109.418
LeftHand  -0.056954 1.63405 1.5024
RightShoulder  -0.351364 -4.58484 25.4521
RightArm  -13.1293 -7.55081 38.0179
RightForeArm  110.839 69.6446 146.195
RightHand  -0.0710848 -4.00299 -4.39998
LeftUpLeg  -11.5373 8.47471 -7.59388
LeftLeg  22.9114 3.50855 1.96647
LeftFoot  -3.58514 -0.357923 5.60174
LeftToes  -7.16024e-010 4.79583e-011 -5.98286e-011
1045
root  5.8125 38.4127 -1.13285 45.8941 83.319 53.6387
RightUpLeg  0.387079 -2.82272 -13.1344
RightLeg  60.8765 2.20671 3.7891
RightFoot  0.824393 -1.00064 9.4214
RightToes  6.35927e-011 1.30204e-014 -6.03759e-014
Spine  3.21004 1.41809 -3.9465
Spine1  13.4904 2.20032 -5.69609
HEad  -16.9855 0.670341 -3.08741
LeftShoulder1  -0.358254 4.56897 -27.4364
LeftArm  -15.2871 2.44779 -29.8072
LeftForeArm  83.9518 -78.2237 -108.596
LeftHand  -0.0579295 1.44996 1.38491
RightShoulder  -0.347798 -4.5773 25.3409
RightArm  -12.998 -6.8146 38.0645
RightForeArm  111.254 69.7314 146.087
RightHand  -0.0701325 -3.95331 -4.17173
LeftUpLeg  -9.0657 8.84458 -7.54907
LeftLeg  22.2193 3.7733 1.86535
LeftFoot  -4.9534 -0.290431 5.73648
LeftToes  -7.16024e-010 4.79583e-011 -5.98286e-011
1046
root  6.72224 38.581 -1.27222 42.6109 83.5357 50.6995
RightUpLeg  -4.11868 -2.84356 -12.6256
RightLeg  64.7011 1.68736 3.31624
RightFoot  -0.9825 -0.857322 9.36239
RightToes  6.35927e-011 1.30204e-014 -6.03759e-014
Spine  3.66653 1.20752 -4.3181
Spine1  13.6481 1.66737 -5.19605
HEad  -16.9124 0.880943 -3.0151
LeftShoulder1  -0.344637 4.52938 -27.4074
LeftArm  -15.3573 2.25517 -30.0882
LeftForeArm  82.2526 -78.3615 -106.61
LeftHand  -0.056753 1.07611 1.1844
RightShoulder  -0.362132 -4.6222 25.3524
RightArm  -13.0936 -6.57472 38.1885
RightForeArm  112.087 69.8013 146.057
RightHand  -0.0693771 -3.74588 -3.6952
LeftUpLeg  -6.56889 8.6251 -6.99941
LeftLeg  21.2332 4.2482 1.50546
LeftFoot  -5.9767 -0.238409 5.84989
LeftToes  -7.16024e-010 4.79583e-011 -5.98286e-011
1047
root  7.65374 38.7327 -1.37955 39.5924 83.9104 47.829
RightUpLeg  -8.44103 -2.96886 -11.6516
RightLeg  65.9237 1.41425 2.84996
RightFoot  -1.86782 -0.734469 8.69588
RightToes  6.35927e-011 1.30204e-014 -6.03759e-014
Spine  3.66651 0.98073 -4.68361
Spine1  13.8562 1.14324 -4.4242
HEad  -16.4962 0.841006 -2.6129
LeftShoulder1  -0.32651 4.47544 -27.4083
LeftArm  -15.3968 1.98384 -30.5552
LeftForeArm  80.8721 -78.472 -104.887
LeftHand  -0.054658 0.878533 1.15978
RightShoulder  -0.376158 -4.66332 25.4408
RightArm  -13.4094 -6.62193 38.2896
RightForeArm  112.452 69.8189 146.067
RightHand  -0.0660292 -3.57272 -3.5357
LeftUpLeg  -4.20252 8.29539 -6.32731
LeftLeg  20.1757 4.60451 1.06211
LeftFoot  -7.01814 -0.17861 5.84811
LeftToes  -7.16024e-010 4.79583e-011 -5.98286e-011
